<?xml version="1.0" encoding="UTF-8" standalone="no"?>
<svg
   version="1.1"
   id="Layer_1"
   x="0px"
   y="0px"
   width="100%"
   viewBox="0 0 537 283"
   enable-background="new 0 0 537 283"
   xml:space="preserve"
   sodipodi:docname="logo.svg"
   inkscape:version="1.2.2 (b0a8486541, 2022-12-01)"
   xmlns:inkscape="http://www.inkscape.org/namespaces/inkscape"
   xmlns:sodipodi="http://sodipodi.sourceforge.net/DTD/sodipodi-0.dtd"
   xmlns="http://www.w3.org/2000/svg"
   xmlns:svg="http://www.w3.org/2000/svg"><defs
   id="defs37" /><sodipodi:namedview
   id="namedview35"
   pagecolor="#ffffff"
   bordercolor="#000000"
   borderopacity="0.25"
   inkscape:showpageshadow="2"
   inkscape:pageopacity="0.0"
   inkscape:pagecheckerboard="0"
   inkscape:deskcolor="#d1d1d1"
   showgrid="false"
   inkscape:zoom="2.461825"
   inkscape:cx="268.7031"
   inkscape:cy="141.35855"
   inkscape:window-width="1920"
   inkscape:window-height="1008"
   inkscape:window-x="1920"
   inkscape:window-y="0"
   inkscape:window-maximized="1"
   inkscape:current-layer="Layer_1" />



<path
   fill="#F0F0E7"
   opacity="1.000000"
   stroke="none"
   d=" M248.984772,139.607239   C241.673935,152.706207 231.506653,161.461411 216.303940,162.156448   C210.807190,162.407761 205.227509,160.845306 198.838547,159.998169   C198.556625,160.469742 197.499420,161.755692 196.960037,163.230957   C195.349609,167.635727 196.357590,168.937469 201.033508,168.815628   C211.482040,168.543381 221.937592,167.903152 232.375946,168.116074   C238.657608,168.244217 244.292496,171.065536 248.729614,175.722717   C258.752594,186.242752 256.655396,200.654404 243.870621,209.487503   C229.463623,219.441376 204.804367,217.760880 191.698135,205.931976   C184.299561,199.254532 182.707825,191.826263 186.410187,182.484406   C186.898895,181.251266 186.820877,179.254333 186.126022,178.179733   C181.941315,171.708023 181.026886,164.968796 183.745941,157.367889   C190.336746,151.752975 186.637970,146.171036 184.182037,139.936646   C183.895782,138.488937 183.759155,137.740173 183.622543,136.991394   C184.806824,116.873741 196.138321,106.614510 216.296158,107.012878   C228.409317,107.252281 240.533783,107.154106 252.648056,106.930817   C255.559418,106.877159 258.450500,105.723175 262.125366,104.902222   C262.125366,109.180618 262.307922,113.249382 261.994415,117.279541   C261.917969,118.261902 260.361511,119.472740 259.222260,119.949821   C257.427185,120.701553 255.409164,120.920815 253.939072,121.260651   C252.248352,127.462936 250.643799,133.349121 248.984772,139.607239  M233.533554,137.960190   C235.612518,133.022842 237.691483,128.085480 240.062790,122.453835   C229.697662,121.893425 220.775711,121.061623 211.851395,121.035660   C204.289551,121.013649 198.973419,125.937775 197.907394,132.765808   C196.869797,139.411789 199.974503,144.053436 207.479675,147.076691   C215.797943,150.427475 225.706223,147.112991 233.533554,137.960190  M231.833572,200.640518   C232.901123,200.183853 233.999649,199.787643 235.030655,199.259628   C238.664993,197.398315 241.175034,194.683975 241.147186,190.351944   C241.119919,186.106491 238.032211,184.174744 234.668488,183.072632   C224.102783,179.610794 213.443161,178.914764 203.355728,184.421524   C201.086563,185.660248 198.558365,188.879776 198.579987,191.164444   C198.601318,193.418991 201.242691,196.507553 203.534637,197.729004   C212.181519,202.337189 221.475937,203.375305 231.833572,200.640518  z"
   id="path8"
   style="fill:#2b1100" />
<path
   fill="#F0EFE7"
   opacity="1.000000"
   stroke="none"
   d=" M125.093613,185.572723   C121.227989,188.355164 117.499817,190.834503 113.551468,193.541214   C112.958290,193.824890 112.585297,193.881195 111.594093,194.080658   C109.614532,194.689972 108.253181,195.156113 106.891823,195.622253   C94.370430,197.791641 82.035599,197.787338 70.211136,192.320801   C55.747627,185.634216 46.937222,170.123489 48.453049,153.771362   C53.025417,153.771362 57.627991,153.771362 62.168751,153.771362   C62.424427,154.144272 62.761398,154.406021 62.755562,154.659897   C62.235355,177.291763 84.687775,186.127258 102.515755,180.221329   C107.048668,178.719666 111.686394,175.934738 114.935425,172.479080   C122.474617,164.460419 119.900642,153.687256 109.535637,150.036499   C103.196640,147.803772 96.258820,147.243591 89.570862,146.038071   C84.335594,145.094391 79.000572,144.613022 73.833847,143.398727   C62.436993,140.720245 54.203918,134.467575 52.003216,122.250946   C49.657658,109.230240 54.148136,99.173325 65.198395,91.819283   C77.675423,83.515709 106.654648,82.553360 119.949936,95.957954   C126.210487,102.269997 129.278290,109.482941 128.675385,118.667313   C123.961128,118.667313 119.394440,118.667313 114.828575,118.667313   C113.776955,107.869476 105.528381,101.558983 93.543167,99.991211   C85.988068,99.002945 78.574203,99.534294 72.087303,104.358604   C67.571327,107.717148 65.246460,112.018433 66.072647,117.708580   C66.888542,123.327873 70.575768,126.748726 75.697464,127.999779   C82.777344,129.729126 90.052704,130.651321 97.234550,131.972412   C102.459396,132.933517 107.795654,133.554123 112.861870,135.065338   C132.188293,140.830292 140.070251,161.805405 129.613846,179.227417   C128.338257,181.352737 126.700813,183.260864 125.093613,185.572723  z"
   id="path10"
   style="fill:#2b1100" />
<path
   fill="#F0F0E8"
   opacity="1.000000"
   stroke="none"
   d=" M416.083496,194.294891   C406.402222,197.239105 397.033691,197.116699 387.872681,193.646332   C375.568695,188.985321 369.691681,179.282166 370.039337,164.447021   C373.357147,148.019073 383.334473,141.696198 398.450806,141.366440   C408.293793,141.151703 418.178955,142.870087 428.304993,143.744873   C430.888397,136.327499 426.421967,127.430412 417.598358,124.059090   C404.612457,119.097443 392.701324,124.156395 387.675934,136.805603   C382.902832,136.805603 378.112885,136.805603 373.321228,136.805603   C373.726135,121.005440 386.564484,109.121681 404.004517,107.989410   C422.789825,106.769798 442.833466,114.028786 444.434540,144.421631   C447.671539,143.944489 450.873962,143.472458 454.759094,142.899780   C454.759094,147.482422 454.961151,151.759094 454.617950,155.991547   C454.531494,157.057831 452.859375,158.455719 451.635254,158.868301   C449.467712,159.598862 447.084930,159.690948 444.235687,160.137421   C444.235687,171.472198 444.235687,182.711136 444.235687,194.480255   C439.363129,194.480255 435.066742,194.609680 430.792389,194.361038   C430.022156,194.316238 429.342438,192.715744 428.619568,191.102722   C428.521423,189.192993 428.424622,188.014038 428.327789,186.835068   C427.889832,186.580185 427.451904,186.325287 427.013947,186.070389   C425.812256,187.653000 424.610596,189.235611 423.408905,190.818237   C421.061523,191.923096 418.714142,193.027939 416.083496,194.294891  M395.694946,180.037888   C406.097961,183.814621 415.291626,181.280441 423.574615,174.523865   C427.070343,171.672394 429.340118,168.027420 428.799896,163.286743   C428.675537,162.195206 427.886841,160.455139 427.108002,160.272064   C416.951263,157.884552 406.800385,154.873505 396.196503,157.155090   C390.685425,158.340851 386.380310,162.699112 385.749817,167.255524   C385.062256,172.224594 387.312500,175.784866 393.151154,178.943710   C393.734833,179.259491 394.346924,179.522858 395.694946,180.037888  z"
   id="path12"
   style="fill:#2b1100" />
<path
   fill="#EEEEE7"
   opacity="1.000000"
   stroke="none"
   d=" M354.108765,157.532425   C354.174744,170.096863 354.174744,182.197083 354.174744,194.569778   C348.921936,194.569778 344.333679,194.569778 339.161041,194.569778   C339.078217,192.827576 338.925812,191.078827 338.923035,189.329849   C338.903076,176.848923 338.946838,164.367783 338.890289,151.887085   C338.876801,148.902313 338.771606,145.888748 338.348480,142.940094   C336.535248,130.303879 330.422363,123.905594 319.366211,122.845108   C308.577820,121.810310 297.632843,128.784790 294.275391,139.398972   C293.099121,143.117508 292.838226,147.237442 292.792053,151.181503   C292.624725,165.465683 292.726135,179.753036 292.726135,194.443451   C287.595947,194.443451 282.869781,194.443451 277.191559,194.443451   C277.191559,176.689545 277.191559,158.804459 277.093323,140.459625   C276.995087,130.383286 276.995087,120.766663 276.995087,110.810028   C282.478149,110.810028 287.220490,110.810028 292.360107,110.810028   C292.538879,113.490906 292.708313,116.031609 292.943481,119.558128   C302.006165,107.136742 314.330475,106.584328 327.042114,108.184578   C341.918182,110.057304 350.925598,119.853226 352.906403,136.143326   C353.747650,143.062057 353.691254,150.089935 354.108765,157.532425  z"
   id="path14"
   style="fill:#2b1100" />
<path
   fill="#F2F1E9"
   opacity="1.000000"
   stroke="none"
   d=" M476.959900,194.509918   C474.529999,194.509995 472.556335,194.509995 470.228577,194.509995   C470.228577,159.235306 470.228577,124.378204 470.228577,89.176506   C474.785706,89.176506 479.336700,89.176506 484.135193,89.176506   C484.135193,124.090157 484.135193,158.853210 484.135193,194.509827   C481.888092,194.509827 479.652100,194.509827 476.959900,194.509918  z"
   id="path16"
   style="fill:#2b1100" />
<path
   fill="#F3F2E9"
   opacity="1.000000"
   stroke="none"
   d=" M164.442429,162.534698   C164.524963,173.258331 164.524963,183.520126 164.524963,194.132874   C159.411346,194.132874 155.005493,194.132874 149.805832,194.132874   C149.805832,187.760178 149.805832,181.338959 149.716415,174.456451   C149.698044,163.512848 149.796371,153.030655 149.832428,142.548233   C149.867889,132.240921 149.840164,121.933403 149.840164,111.230179   C154.627075,111.230179 159.158936,111.230179 164.359894,111.230179   C164.359894,128.232391 164.359894,145.152618 164.442429,162.534698  z"
   id="path18"
   style="fill:#2b1100" />
<path
   fill="#ECEDE6"
   opacity="1.000000"
   stroke="none"
   d=" M165.195984,90.017426   C164.834625,94.886642 162.234009,97.302887 157.963028,97.886856   C153.560928,98.488739 149.530426,95.399086 148.965805,91.230949   C148.403412,87.079163 151.039383,83.443298 155.287292,82.511581   C160.167007,81.441284 163.789566,84.043472 165.195984,90.017426  z"
   id="path20"
   style="fill:#2b1100" />


<path
   fill="#365C89"
   opacity="1.000000"
   stroke="none"
   d=" M183.396896,137.132660   C183.759155,137.740173 183.895782,138.488937 183.996490,139.619171   C183.697495,139.091736 183.434372,138.182831 183.396896,137.132660  z"
   id="path26"
   style="fill:#2b1100" />



</svg>
